<svg xmlns="http://www.w3.org/2000/svg" viewBox="0 0 400 240" fill="none">
  <rect width="400" height="240" rx="12" fill="#1a1a2e"/>
  <rect x="60" y="45" width="120" height="150" rx="8" fill="#2d2d44" stroke="#6366f1" stroke-width="1.5"/>
  <rect x="78" y="65" width="70" height="6" rx="3" fill="#6366f1" opacity="0.8"/>
  <rect x="78" y="82" width="84" height="5" rx="2.5" fill="#6b7280"/>
  <rect x="78" y="94" width="84" height="5" rx="2.5" fill="#6b7280"/>
  <rect x="78" y="106" width="70" height="5" rx="2.5" fill="#6b7280"/>
  <rect x="78" y="118" width="84" height="5" rx="2.5" fill="#6b7280"/>
  <rect x="78" y="155" width="50" height="20" rx="4" fill="#6366f1" opacity="0.3"/>
  <rect x="210" y="55" width="130" height="130" rx="8" fill="#2d2d44" stroke="#22c55e" stroke-width="1.5"/>
  <rect x="228" y="75" width="30" height="8" rx="2" fill="#22c55e" opacity="0.7"/>
  <rect x="228" y="95" width="94" height="5" rx="2.5" fill="#6b7280"/>
  <rect x="228" y="107" width="80" height="5" rx="2.5" fill="#6b7280"/>
  <rect x="228" y="119" width="90" height="5" rx="2.5" fill="#6b7280"/>
  <rect x="228" y="131" width="75" height="5" rx="2.5" fill="#6b7280"/>
  <path d="M185 120 L200 120 L200 105 L215 105" stroke="#f59e0b" stroke-width="2" fill="none" stroke-linecap="round"/>
  <text x="200" y="220" text-anchor="middle" fill="#9ca3af" font-family="system-ui" font-size="12">e4</text>
</svg>
